<?xml version="1.0" standalone="no"?><!-- Generator: Gravit.io --><svg xmlns="http://www.w3.org/2000/svg" xmlns:xlink="http://www.w3.org/1999/xlink" style="isolation:isolate" viewBox="0 0 237 111" width="237" height="111"><defs><clipPath id="_clipPath_WKfK9znCexku4Ro9ADHMdENazJfUF5rt"><rect width="237" height="111"/></clipPath></defs><g clip-path="url(#_clipPath_WKfK9znCexku4Ro9ADHMdENazJfUF5rt)"><g><path d=" M 42.95 72.888 L 33.11 72.888 L 33.11 30.288 L 52.31 30.288 L 52.31 30.288 Q 55.31 30.288 57.86 31.548 L 57.86 31.548 L 57.86 31.548 Q 60.41 32.808 62.27 34.848 L 62.27 34.848 L 62.27 34.848 Q 64.13 36.888 65.18 39.468 L 65.18 39.468 L 65.18 39.468 Q 66.23 42.048 66.23 44.688 L 66.23 44.688 L 66.23 44.688 Q 66.23 46.668 65.75 48.498 L 65.75 48.498 L 65.75 48.498 Q 65.27 50.328 64.37 51.948 L 64.37 51.948 L 64.37 51.948 Q 63.47 53.568 62.18 54.858 L 62.18 54.858 L 62.18 54.858 Q 60.89 56.148 59.27 57.048 L 59.27 57.048 L 68.63 72.888 L 57.53 72.888 L 49.37 59.148 L 42.95 59.148 L 42.95 72.888 Z  M 42.95 38.928 L 42.95 50.568 L 51.95 50.568 L 51.95 50.568 Q 53.69 50.568 54.95 48.918 L 54.95 48.918 L 54.95 48.918 Q 56.21 47.268 56.21 44.688 L 56.21 44.688 L 56.21 44.688 Q 56.21 42.048 54.77 40.488 L 54.77 40.488 L 54.77 40.488 Q 53.33 38.928 51.65 38.928 L 51.65 38.928 L 42.95 38.928 Z  M 91.97 73.248 L 91.97 73.248 L 91.97 73.248 Q 87.23 73.248 83.33 71.388 L 83.33 71.388 L 83.33 71.388 Q 79.43 69.528 76.67 66.498 L 76.67 66.498 L 76.67 66.498 Q 73.91 63.468 72.38 59.568 L 72.38 59.568 L 72.38 59.568 Q 70.85 55.668 70.85 51.528 L 70.85 51.528 L 70.85 51.528 Q 70.85 47.328 72.44 43.428 L 72.44 43.428 L 72.44 43.428 Q 74.03 39.528 76.88 36.558 L 76.88 36.558 L 76.88 36.558 Q 79.73 33.588 83.63 31.818 L 83.63 31.818 L 83.63 31.818 Q 87.53 30.048 92.15 30.048 L 92.15 30.048 L 92.15 30.048 Q 96.89 30.048 100.79 31.908 L 100.79 31.908 L 100.79 31.908 Q 104.69 33.768 107.45 36.828 L 107.45 36.828 L 107.45 36.828 Q 110.21 39.888 111.71 43.788 L 111.71 43.788 L 111.71 43.788 Q 113.21 47.688 113.21 51.708 L 113.21 51.708 L 113.21 51.708 Q 113.21 55.908 111.62 59.808 L 111.62 59.808 L 111.62 59.808 Q 110.03 63.708 107.21 66.678 L 107.21 66.678 L 107.21 66.678 Q 104.39 69.648 100.49 71.448 L 100.49 71.448 L 100.49 71.448 Q 96.59 73.248 91.97 73.248 Z  M 80.87 51.648 L 80.87 51.648 L 80.87 51.648 Q 80.87 54.108 81.59 56.418 L 81.59 56.418 L 81.59 56.418 Q 82.31 58.728 83.72 60.528 L 83.72 60.528 L 83.72 60.528 Q 85.13 62.328 87.23 63.408 L 87.23 63.408 L 87.23 63.408 Q 89.33 64.488 92.03 64.488 L 92.03 64.488 L 92.03 64.488 Q 94.85 64.488 96.95 63.348 L 96.95 63.348 L 96.95 63.348 Q 99.05 62.208 100.43 60.378 L 100.43 60.378 L 100.43 60.378 Q 101.81 58.548 102.5 56.238 L 102.5 56.238 L 102.5 56.238 Q 103.19 53.928 103.19 51.528 L 103.19 51.528 L 103.19 51.528 Q 103.19 49.068 102.47 46.758 L 102.47 46.758 L 102.47 46.758 Q 101.75 44.448 100.31 42.678 L 100.31 42.678 L 100.31 42.678 Q 98.87 40.908 96.8 39.858 L 96.8 39.858 L 96.8 39.858 Q 94.73 38.808 92.03 38.808 L 92.03 38.808 L 92.03 38.808 Q 89.21 38.808 87.14 39.918 L 87.14 39.918 L 87.14 39.918 Q 85.07 41.028 83.66 42.828 L 83.66 42.828 L 83.66 42.828 Q 82.25 44.628 81.56 46.938 L 81.56 46.938 L 81.56 46.938 Q 80.87 49.248 80.87 51.648 Z  M 137.57 73.248 L 137.57 73.248 L 137.57 73.248 Q 132.83 73.248 128.93 71.388 L 128.93 71.388 L 128.93 71.388 Q 125.03 69.528 122.27 66.498 L 122.27 66.498 L 122.27 66.498 Q 119.51 63.468 117.98 59.568 L 117.98 59.568 L 117.98 59.568 Q 116.45 55.668 116.45 51.528 L 116.45 51.528 L 116.45 51.528 Q 116.45 47.328 118.04 43.428 L 118.04 43.428 L 118.04 43.428 Q 119.63 39.528 122.48 36.558 L 122.48 36.558 L 122.48 36.558 Q 125.33 33.588 129.23 31.818 L 129.23 31.818 L 129.23 31.818 Q 133.13 30.048 137.75 30.048 L 137.75 30.048 L 137.75 30.048 Q 142.49 30.048 146.39 31.908 L 146.39 31.908 L 146.39 31.908 Q 150.29 33.768 153.05 36.828 L 153.05 36.828 L 153.05 36.828 Q 155.81 39.888 157.31 43.788 L 157.31 43.788 L 157.31 43.788 Q 158.81 47.688 158.81 51.708 L 158.81 51.708 L 158.81 51.708 Q 158.81 55.908 157.22 59.808 L 157.22 59.808 L 157.22 59.808 Q 155.63 63.708 152.81 66.678 L 152.81 66.678 L 152.81 66.678 Q 149.99 69.648 146.09 71.448 L 146.09 71.448 L 146.09 71.448 Q 142.19 73.248 137.57 73.248 Z  M 126.47 51.648 L 126.47 51.648 L 126.47 51.648 Q 126.47 54.108 127.19 56.418 L 127.19 56.418 L 127.19 56.418 Q 127.91 58.728 129.32 60.528 L 129.32 60.528 L 129.32 60.528 Q 130.73 62.328 132.83 63.408 L 132.83 63.408 L 132.83 63.408 Q 134.93 64.488 137.63 64.488 L 137.63 64.488 L 137.63 64.488 Q 140.45 64.488 142.55 63.348 L 142.55 63.348 L 142.55 63.348 Q 144.65 62.208 146.03 60.378 L 146.03 60.378 L 146.03 60.378 Q 147.41 58.548 148.1 56.238 L 148.1 56.238 L 148.1 56.238 Q 148.79 53.928 148.79 51.528 L 148.79 51.528 L 148.79 51.528 Q 148.79 49.068 148.07 46.758 L 148.07 46.758 L 148.07 46.758 Q 147.35 44.448 145.91 42.678 L 145.91 42.678 L 145.91 42.678 Q 144.47 40.908 142.4 39.858 L 142.4 39.858 L 142.4 39.858 Q 140.33 38.808 137.63 38.808 L 137.63 38.808 L 137.63 38.808 Q 134.81 38.808 132.74 39.918 L 132.74 39.918 L 132.74 39.918 Q 130.67 41.028 129.26 42.828 L 129.26 42.828 L 129.26 42.828 Q 127.85 44.628 127.16 46.938 L 127.16 46.938 L 127.16 46.938 Q 126.47 49.248 126.47 51.648 Z  M 195.77 72.888 L 193.55 70.488 L 193.55 70.488 Q 191.27 71.748 188.66 72.468 L 188.66 72.468 L 188.66 72.468 Q 186.05 73.188 183.17 73.188 L 183.17 73.188 L 183.17 73.188 Q 178.43 73.188 174.53 71.358 L 174.53 71.358 L 174.53 71.358 Q 170.63 69.528 167.87 66.498 L 167.87 66.498 L 167.87 66.498 Q 165.11 63.468 163.58 59.568 L 163.58 59.568 L 163.58 59.568 Q 162.05 55.668 162.05 51.528 L 162.05 51.528 L 162.05 51.528 Q 162.05 47.328 163.64 43.428 L 163.64 43.428 L 163.64 43.428 Q 165.23 39.528 168.08 36.528 L 168.08 36.528 L 168.08 36.528 Q 170.93 33.528 174.83 31.758 L 174.83 31.758 L 174.83 31.758 Q 178.73 29.988 183.35 29.988 L 183.35 29.988 L 183.35 29.988 Q 188.09 29.988 191.99 31.878 L 191.99 31.878 L 191.99 31.878 Q 195.89 33.768 198.65 36.828 L 198.65 36.828 L 198.65 36.828 Q 201.41 39.888 202.91 43.788 L 202.91 43.788 L 202.91 43.788 Q 204.41 47.688 204.41 51.708 L 204.41 51.708 L 204.41 51.708 Q 204.41 55.788 202.97 59.508 L 202.97 59.508 L 202.97 59.508 Q 201.53 63.228 198.89 66.168 L 198.89 66.168 L 205.01 72.888 L 195.77 72.888 Z  M 183.23 64.428 L 183.23 64.428 L 183.23 64.428 Q 185.63 64.428 187.43 63.648 L 187.43 63.648 L 180.59 56.088 L 189.83 56.088 L 192.47 59.028 L 192.47 59.028 Q 193.43 57.348 193.91 55.428 L 193.91 55.428 L 193.91 55.428 Q 194.39 53.508 194.39 51.528 L 194.39 51.528 L 194.39 51.528 Q 194.39 49.068 193.67 46.758 L 193.67 46.758 L 193.67 46.758 Q 192.95 44.448 191.51 42.678 L 191.51 42.678 L 191.51 42.678 Q 190.07 40.908 188 39.828 L 188 39.828 L 188 39.828 Q 185.93 38.748 183.23 38.748 L 183.23 38.748 L 183.23 38.748 Q 180.41 38.748 178.34 39.858 L 178.34 39.858 L 178.34 39.858 Q 176.27 40.968 174.86 42.798 L 174.86 42.798 L 174.86 42.798 Q 173.45 44.628 172.76 46.938 L 172.76 46.938 L 172.76 46.938 Q 172.07 49.248 172.07 51.648 L 172.07 51.648 L 172.07 51.648 Q 172.07 54.108 172.79 56.418 L 172.79 56.418 L 172.79 56.418 Q 173.51 58.728 174.92 60.498 L 174.92 60.498 L 174.92 60.498 Q 176.33 62.268 178.43 63.348 L 178.43 63.348 L 178.43 63.348 Q 180.53 64.428 183.23 64.428 Z  M 40.679 110.676 L 40.679 100.89 L 44.445 100.89 L 44.445 100.89 Q 46.027 100.89 46.944 101.681 L 46.944 101.681 L 46.944 101.681 Q 47.861 102.472 47.861 103.928 L 47.861 103.928 L 47.861 103.928 Q 47.861 105.412 46.951 106.175 L 46.951 106.175 L 46.951 106.175 Q 46.041 106.938 44.445 106.938 L 44.445 106.938 L 42.107 106.938 L 42.107 110.676 L 40.679 110.676 Z  M 42.107 105.748 L 44.291 105.748 L 44.291 105.748 Q 45.271 105.748 45.845 105.342 L 45.845 105.342 L 45.845 105.342 Q 46.419 104.936 46.419 103.928 L 46.419 103.928 L 46.419 103.928 Q 46.419 102.92 45.845 102.507 L 45.845 102.507 L 45.845 102.507 Q 45.271 102.094 44.291 102.094 L 44.291 102.094 L 42.107 102.094 L 42.107 105.748 Z  M 54.79 110.676 L 54.79 100.89 L 58.724 100.89 L 58.724 100.89 Q 60.292 100.89 61.132 101.646 L 61.132 101.646 L 61.132 101.646 Q 61.972 102.402 61.972 103.858 L 61.972 103.858 L 61.972 103.858 Q 61.972 104.936 61.398 105.685 L 61.398 105.685 L 61.398 105.685 Q 60.824 106.434 59.774 106.7 L 59.774 106.7 L 61.93 110.676 L 60.446 110.676 L 58.36 106.812 L 56.218 106.812 L 56.218 110.676 L 54.79 110.676 Z  M 56.218 105.608 L 58.486 105.608 L 58.486 105.608 Q 59.424 105.608 59.977 105.167 L 59.977 105.167 L 59.977 105.167 Q 60.53 104.726 60.53 103.858 L 60.53 103.858 L 60.53 103.858 Q 60.53 102.906 59.991 102.5 L 59.991 102.5 L 59.991 102.5 Q 59.452 102.094 58.486 102.094 L 58.486 102.094 L 56.218 102.094 L 56.218 105.608 Z  M 74.053 110.886 L 74.053 110.886 Q 72.597 110.886 71.421 110.249 L 71.421 110.249 L 71.421 110.249 Q 70.245 109.612 69.573 108.45 L 69.573 108.45 L 69.573 108.45 Q 68.901 107.288 68.901 105.79 L 68.901 105.79 L 68.901 105.79 Q 68.901 104.292 69.573 103.13 L 69.573 103.13 L 69.573 103.13 Q 70.245 101.968 71.421 101.324 L 71.421 101.324 L 71.421 101.324 Q 72.597 100.68 74.053 100.68 L 74.053 100.68 L 74.053 100.68 Q 75.509 100.68 76.685 101.324 L 76.685 101.324 L 76.685 101.324 Q 77.861 101.968 78.533 103.13 L 78.533 103.13 L 78.533 103.13 Q 79.205 104.292 79.205 105.79 L 79.205 105.79 L 79.205 105.79 Q 79.205 107.288 78.533 108.45 L 78.533 108.45 L 78.533 108.45 Q 77.861 109.612 76.685 110.249 L 76.685 110.249 L 76.685 110.249 Q 75.509 110.886 74.053 110.886 L 74.053 110.886 Z  M 74.053 109.598 L 74.053 109.598 Q 75.089 109.598 75.936 109.129 L 75.936 109.129 L 75.936 109.129 Q 76.783 108.66 77.273 107.799 L 77.273 107.799 L 77.273 107.799 Q 77.763 106.938 77.763 105.79 L 77.763 105.79 L 77.763 105.79 Q 77.763 104.656 77.28 103.795 L 77.28 103.795 L 77.28 103.795 Q 76.797 102.934 75.957 102.465 L 75.957 102.465 L 75.957 102.465 Q 75.117 101.996 74.081 101.996 L 74.081 101.996 L 74.081 101.996 Q 73.031 101.996 72.184 102.458 L 72.184 102.458 L 72.184 102.458 Q 71.337 102.92 70.84 103.788 L 70.84 103.788 L 70.84 103.788 Q 70.343 104.656 70.343 105.79 L 70.343 105.79 L 70.343 105.79 Q 70.343 106.938 70.833 107.799 L 70.833 107.799 L 70.833 107.799 Q 71.323 108.66 72.17 109.129 L 72.17 109.129 L 72.17 109.129 Q 73.017 109.598 74.053 109.598 L 74.053 109.598 Z  M 86.414 110.676 L 86.414 100.89 L 89.564 100.89 L 89.564 100.89 Q 91.146 100.89 92.308 101.478 L 92.308 101.478 L 92.308 101.478 Q 93.47 102.066 94.093 103.158 L 94.093 103.158 L 94.093 103.158 Q 94.716 104.25 94.716 105.734 L 94.716 105.734 L 94.716 105.734 Q 94.716 108.17 93.309 109.423 L 93.309 109.423 L 93.309 109.423 Q 91.902 110.676 89.368 110.676 L 89.368 110.676 L 86.414 110.676 Z  M 87.842 109.486 L 89.354 109.486 L 89.354 109.486 Q 91.314 109.486 92.294 108.52 L 92.294 108.52 L 92.294 108.52 Q 93.274 107.554 93.274 105.734 L 93.274 105.734 L 93.274 105.734 Q 93.274 104.054 92.315 103.074 L 92.315 103.074 L 92.315 103.074 Q 91.356 102.094 89.578 102.094 L 89.578 102.094 L 87.842 102.094 L 87.842 109.486 Z  M 105.902 110.886 L 105.902 110.886 Q 103.9 110.886 102.878 109.857 L 102.878 109.857 L 102.878 109.857 Q 101.856 108.828 101.856 107.022 L 101.856 107.022 L 101.856 100.89 L 103.284 100.89 L 103.284 107.078 L 103.284 107.078 Q 103.284 108.324 103.984 108.961 L 103.984 108.961 L 103.984 108.961 Q 104.684 109.598 105.902 109.598 L 105.902 109.598 L 105.902 109.598 Q 107.106 109.598 107.806 108.961 L 107.806 108.961 L 107.806 108.961 Q 108.506 108.324 108.506 107.078 L 108.506 107.078 L 108.506 100.89 L 109.934 100.89 L 109.934 107.022 L 109.934 107.022 Q 109.934 108.814 108.912 109.85 L 108.912 109.85 L 108.912 109.85 Q 107.89 110.886 105.902 110.886 L 105.902 110.886 Z  M 122.253 110.886 L 122.253 110.886 Q 120.741 110.886 119.565 110.256 L 119.565 110.256 L 119.565 110.256 Q 118.389 109.626 117.731 108.471 L 117.731 108.471 L 117.731 108.471 Q 117.073 107.316 117.073 105.79 L 117.073 105.79 L 117.073 105.79 Q 117.073 104.264 117.731 103.102 L 117.731 103.102 L 117.731 103.102 Q 118.389 101.94 119.565 101.31 L 119.565 101.31 L 119.565 101.31 Q 120.741 100.68 122.253 100.68 L 122.253 100.68 L 122.253 100.68 Q 124.269 100.68 125.627 101.702 L 125.627 101.702 L 125.627 103.074 L 125.627 103.074 Q 124.409 101.996 122.379 101.996 L 122.379 101.996 L 122.379 101.996 Q 121.245 101.996 120.37 102.458 L 120.37 102.458 L 120.37 102.458 Q 119.495 102.92 119.005 103.781 L 119.005 103.781 L 119.005 103.781 Q 118.515 104.642 118.515 105.79 L 118.515 105.79 L 118.515 105.79 Q 118.515 106.938 119.012 107.806 L 119.012 107.806 L 119.012 107.806 Q 119.509 108.674 120.384 109.136 L 120.384 109.136 L 120.384 109.136 Q 121.259 109.598 122.379 109.598 L 122.379 109.598 L 122.379 109.598 Q 123.415 109.598 124.234 109.325 L 124.234 109.325 L 124.234 109.325 Q 125.053 109.052 125.753 108.45 L 125.753 108.45 L 125.753 109.836 L 125.753 109.836 Q 124.493 110.886 122.253 110.886 L 122.253 110.886 Z  M 135.44 110.676 L 135.44 102.094 L 132.402 102.094 L 132.402 100.89 L 139.92 100.89 L 139.92 102.094 L 136.882 102.094 L 136.882 110.676 L 135.44 110.676 Z  M 146.85 110.676 L 146.85 100.89 L 148.292 100.89 L 148.292 110.676 L 146.85 110.676 Z  M 160.653 110.886 L 160.653 110.886 Q 159.197 110.886 158.021 110.249 L 158.021 110.249 L 158.021 110.249 Q 156.845 109.612 156.173 108.45 L 156.173 108.45 L 156.173 108.45 Q 155.501 107.288 155.501 105.79 L 155.501 105.79 L 155.501 105.79 Q 155.501 104.292 156.173 103.13 L 156.173 103.13 L 156.173 103.13 Q 156.845 101.968 158.021 101.324 L 158.021 101.324 L 158.021 101.324 Q 159.197 100.68 160.653 100.68 L 160.653 100.68 L 160.653 100.68 Q 162.109 100.68 163.285 101.324 L 163.285 101.324 L 163.285 101.324 Q 164.461 101.968 165.133 103.13 L 165.133 103.13 L 165.133 103.13 Q 165.805 104.292 165.805 105.79 L 165.805 105.79 L 165.805 105.79 Q 165.805 107.288 165.133 108.45 L 165.133 108.45 L 165.133 108.45 Q 164.461 109.612 163.285 110.249 L 163.285 110.249 L 163.285 110.249 Q 162.109 110.886 160.653 110.886 L 160.653 110.886 Z  M 160.653 109.598 L 160.653 109.598 Q 161.689 109.598 162.536 109.129 L 162.536 109.129 L 162.536 109.129 Q 163.383 108.66 163.873 107.799 L 163.873 107.799 L 163.873 107.799 Q 164.363 106.938 164.363 105.79 L 164.363 105.79 L 164.363 105.79 Q 164.363 104.656 163.88 103.795 L 163.88 103.795 L 163.88 103.795 Q 163.397 102.934 162.557 102.465 L 162.557 102.465 L 162.557 102.465 Q 161.717 101.996 160.681 101.996 L 160.681 101.996 L 160.681 101.996 Q 159.631 101.996 158.784 102.458 L 158.784 102.458 L 158.784 102.458 Q 157.937 102.92 157.44 103.788 L 157.44 103.788 L 157.44 103.788 Q 156.943 104.656 156.943 105.79 L 156.943 105.79 L 156.943 105.79 Q 156.943 106.938 157.433 107.799 L 157.433 107.799 L 157.433 107.799 Q 157.923 108.66 158.77 109.129 L 158.77 109.129 L 158.77 109.129 Q 159.617 109.598 160.653 109.598 L 160.653 109.598 Z  M 173.014 110.676 L 173.014 100.89 L 174.372 100.89 L 179.356 108.268 L 179.356 100.89 L 180.798 100.89 L 180.798 110.676 L 179.426 110.676 L 174.442 103.298 L 174.442 110.676 L 173.014 110.676 Z  M 191.003 110.886 L 191.003 110.886 Q 190.163 110.886 189.344 110.739 L 189.344 110.739 L 189.344 110.739 Q 188.525 110.592 188.007 110.34 L 188.007 110.34 L 188.007 109.052 L 188.007 109.052 Q 189.351 109.682 190.905 109.682 L 190.905 109.682 L 190.905 109.682 Q 193.089 109.682 193.089 108.212 L 193.089 108.212 L 193.089 108.212 Q 193.089 107.708 192.851 107.4 L 192.851 107.4 L 192.851 107.4 Q 192.613 107.092 192.165 106.861 L 192.165 106.861 L 192.165 106.861 Q 191.717 106.63 190.709 106.224 L 190.709 106.224 L 190.709 106.224 Q 189.323 105.664 188.707 104.992 L 188.707 104.992 L 188.707 104.992 Q 188.091 104.32 188.091 103.298 L 188.091 103.298 L 188.091 103.298 Q 188.091 102.528 188.511 101.933 L 188.511 101.933 L 188.511 101.933 Q 188.931 101.338 189.687 101.009 L 189.687 101.009 L 189.687 101.009 Q 190.443 100.68 191.423 100.68 L 191.423 100.68 L 191.423 100.68 Q 192.221 100.68 192.865 100.806 L 192.865 100.806 L 192.865 100.806 Q 193.509 100.932 194.125 101.212 L 194.125 101.212 L 194.125 102.444 L 194.125 102.444 Q 192.907 101.898 191.661 101.898 L 191.661 101.898 L 191.661 101.898 Q 190.653 101.898 190.121 102.262 L 190.121 102.262 L 190.121 102.262 Q 189.589 102.626 189.589 103.298 L 189.589 103.298 L 189.589 103.298 Q 189.589 103.76 189.82 104.075 L 189.82 104.075 L 189.82 104.075 Q 190.051 104.39 190.506 104.635 L 190.506 104.635 L 190.506 104.635 Q 190.961 104.88 191.857 105.244 L 191.857 105.244 L 191.857 105.244 Q 192.851 105.65 193.425 106.014 L 193.425 106.014 L 193.425 106.014 Q 193.999 106.378 194.3 106.903 L 194.3 106.903 L 194.3 106.903 Q 194.601 107.428 194.601 108.212 L 194.601 108.212 L 194.601 108.212 Q 194.601 109.486 193.691 110.186 L 193.691 110.186 L 193.691 110.186 Q 192.781 110.886 191.003 110.886 L 191.003 110.886 Z " fill-rule="evenodd" fill="rgb(255,255,255)"/><path d=" M 5 98.416 L 5 5 L 232 5 L 232 98.416 L 232 98.416 L 232 98.416 M 5 106 L 29 106 M 232 106 L 209 106" fill-rule="evenodd" fill="none" vector-effect="non-scaling-stroke" stroke-width="10" stroke="rgb(255,255,255)" stroke-linejoin="miter" stroke-linecap="square" stroke-miterlimit="3"/></g></g></svg>