<?xml version="1.0" standalone="no"?>
<!DOCTYPE svg PUBLIC "-//W3C//DTD SVG 20010904//EN"
 "http://www.w3.org/TR/2001/REC-SVG-20010904/DTD/svg10.dtd">
<svg version="1.0" xmlns="http://www.w3.org/2000/svg"
 width="1896.000000pt" height="1896.000000pt" viewBox="0 0 1896.000000 1896.000000"
 preserveAspectRatio="xMidYMid meet">
<metadata>
Created by potrace 1.11, written by Peter Selinger 2001-2013
</metadata>
<g transform="translate(0.000000,1896.000000) scale(0.100000,-0.100000)"
fill="#000000" stroke="none">
<path d="M0 9480 l0 -4440 1359 0 1359 0 4 25 c3 14 1 25 -3 25 -5 0 -4 11 1
25 6 15 6 26 -1 30 -5 4 -7 11 -3 16 9 15 11 78 2 92 -3 6 -2 19 3 28 6 12 5
20 -1 24 -6 4 -8 11 -4 16 9 15 11 79 2 79 -4 0 -5 6 -2 14 8 22 10 156 2 156
-4 0 -3 11 2 25 6 15 6 26 0 30 -6 4 -7 14 -2 23 11 23 6 172 -5 183 -6 6 -19
10 -29 10 -23 -1 -49 -1 -69 -1 -8 0 -30 -1 -47 -2 -18 -2 -43 0 -55 4 -12 4
-25 3 -28 -2 -3 -6 -15 -6 -29 0 -13 5 -27 6 -30 3 -8 -8 -76 -9 -76 -1 0 4
-13 3 -30 -2 -17 -5 -30 -5 -30 0 0 5 -13 5 -30 0 -17 -5 -30 -5 -30 0 0 5
-13 5 -30 0 -17 -5 -30 -5 -30 0 0 5 -13 5 -30 0 -17 -5 -30 -5 -30 0 0 5 -13
5 -29 0 -15 -4 -34 -4 -42 0 -7 5 -20 5 -29 0 -9 -5 -22 -5 -29 -1 -7 5 -29 5
-50 1 -21 -4 -47 -3 -59 1 -12 5 -24 4 -27 -1 -3 -6 -15 -6 -29 0 -13 5 -27 6
-30 3 -8 -8 -76 -9 -76 -1 0 4 -13 3 -30 -2 -17 -5 -30 -5 -30 0 0 5 -13 5
-30 0 -17 -5 -30 -5 -30 0 0 5 -13 5 -30 0 -17 -5 -30 -5 -30 0 0 5 -13 5 -30
0 -17 -5 -30 -5 -30 0 0 5 -13 5 -29 0 -15 -4 -34 -4 -42 0 -7 5 -20 5 -29 0
-9 -5 -22 -5 -29 -1 -7 5 -29 5 -50 1 -21 -4 -47 -3 -59 1 -12 5 -24 4 -27 -1
-3 -6 -15 -6 -29 0 -13 5 -27 6 -30 3 -8 -8 -76 -9 -76 -1 0 4 -13 3 -30 -2
-17 -5 -30 -6 -30 -2 0 8 -68 7 -76 -1 -3 -3 -17 -2 -30 3 -14 6 -26 6 -29 0
-3 -6 -15 -6 -29 0 -13 5 -27 6 -31 2 -8 -9 -25 20 -18 31 8 14 9 337 1 337
-4 0 -3 11 2 24 5 13 6 27 3 30 -7 7 -10 86 -3 86 3 0 5 16 5 35 0 19 -3 35
-7 35 -4 0 -4 10 1 23 11 29 11 31 1 67 -5 16 -5 30 0 30 4 0 4 16 0 35 -4 19
-5 35 -1 35 8 0 6 68 -2 76 -3 3 -2 17 3 30 5 13 6 25 2 28 -5 3 -5 30 -2 61
3 31 3 58 -2 61 -4 3 -3 15 2 28 5 13 6 27 3 30 -8 7 -10 76 -3 76 7 0 3 77
-4 88 -2 4 -1 14 4 22 4 7 4 23 0 36 -5 12 -6 25 -3 28 7 7 10 76 3 76 -3 0
-5 16 -5 35 0 19 2 35 5 35 3 0 4 19 2 43 -1 23 -4 57 -5 75 -1 19 1 36 4 38
4 2 3 20 -1 39 -4 19 -5 35 -1 35 3 0 6 43 6 95 0 52 -3 95 -6 95 -4 0 -3 16
1 35 4 19 4 35 -1 35 -5 0 -4 11 1 24 5 13 6 27 3 30 -7 7 -10 86 -3 86 3 0 5
16 5 35 0 19 -3 35 -7 35 -4 0 -4 10 1 23 5 12 5 32 0 44 -4 12 -4 25 0 28 5
3 5 21 1 40 -4 19 -5 35 -1 35 3 0 6 43 6 95 0 52 -3 95 -6 95 -4 0 -3 16 1
35 4 19 4 35 -1 35 -5 0 -4 11 1 24 5 13 6 27 3 30 -7 7 -10 86 -3 86 3 0 5
16 5 35 0 19 -4 35 -8 35 -5 0 -5 5 -2 10 9 14 10 108 2 116 -3 3 -2 16 3 29
5 13 6 26 3 29 -8 7 -10 76 -3 76 7 0 3 77 -4 88 -2 4 -1 14 4 22 4 7 4 23 0
36 -5 12 -6 25 -3 28 7 7 10 76 3 76 -3 0 -5 16 -5 35 0 19 2 35 5 35 7 0 3
77 -4 88 -2 4 -1 14 4 21 4 8 4 27 0 42 -5 16 -5 29 0 29 4 0 4 16 0 35 -4 19
-5 35 -1 35 8 0 6 68 -2 76 -3 3 -2 16 3 29 5 13 6 26 3 29 -8 7 -8 84 -1 92
3 3 2 21 -2 40 -4 18 -5 34 -1 34 3 0 6 43 6 95 0 52 -3 95 -6 95 -4 0 -3 16
1 35 4 19 4 35 -1 35 -5 0 -4 11 1 24 5 13 6 27 3 30 -7 7 -10 86 -3 86 3 0 5
16 5 35 0 19 -3 35 -7 35 -4 0 -4 10 1 23 11 29 11 31 1 67 -5 16 -5 30 0 30
4 0 4 16 0 35 -4 19 -5 35 -1 35 8 0 6 68 -2 76 -3 3 -2 17 3 30 5 13 6 25 2
28 -5 3 -5 30 -2 61 3 31 3 58 -2 61 -4 3 -3 15 2 28 5 13 6 27 3 30 -8 7 -10
76 -3 76 7 0 3 77 -4 88 -2 4 -1 14 4 22 4 7 4 23 0 36 -5 12 -6 25 -3 28 7 7
10 76 3 76 -3 0 -5 16 -5 35 0 19 2 35 5 35 3 0 4 19 2 43 -1 23 -4 57 -5 75
-1 19 1 36 4 38 4 2 3 20 -1 39 -4 19 -5 35 -1 35 3 0 6 43 6 95 0 52 -3 95
-6 95 -4 0 -3 16 1 35 4 19 4 35 -1 35 -5 0 -4 11 1 24 5 13 6 27 3 30 -7 7
-10 86 -3 86 3 0 5 16 5 35 0 19 -3 35 -7 35 -4 0 -4 10 1 23 5 12 5 32 0 44
-4 12 -4 25 0 28 5 3 5 21 1 40 -4 19 -5 35 -1 35 3 0 6 43 6 95 0 52 -3 95
-6 95 -4 0 -3 16 1 35 4 19 4 35 -1 35 -5 0 -4 11 1 24 5 13 6 27 3 30 -7 7
-10 86 -3 86 3 0 5 16 5 35 0 19 -4 35 -8 35 -5 0 -5 5 -2 10 9 14 10 108 2
116 -3 3 -2 16 3 29 5 13 6 26 3 29 -8 7 -10 76 -3 76 7 0 3 77 -4 88 -2 4 -1
14 4 22 4 7 4 23 0 36 -5 12 -6 25 -3 28 7 7 10 76 3 76 -5 0 -4 68 0 80 2 3
2 9 1 14 -3 15 22 25 39 16 9 -5 22 -5 30 0 8 5 18 6 23 3 5 -3 32 -5 61 -4
108 3 146 2 156 -4 5 -3 10 -1 10 5 0 6 5 8 11 4 6 -4 34 -6 63 -5 28 1 62 1
76 0 14 0 32 0 40 0 53 4 111 2 120 -4 5 -3 10 -1 10 5 0 6 5 8 11 4 11 -6 69
-7 142 -1 17 1 42 -1 54 -5 12 -4 25 -3 28 3 4 5 11 7 16 3 6 -3 34 -6 62 -5
123 3 147 2 157 -4 5 -3 10 -1 10 5 0 6 5 8 11 4 11 -6 69 -7 142 -1 17 1 42
-1 54 -5 12 -4 25 -3 28 3 4 5 11 7 16 3 6 -3 34 -6 62 -5 123 3 147 2 157 -4
5 -3 10 -1 10 5 0 6 5 8 11 4 6 -4 34 -6 63 -5 28 1 62 1 76 0 14 0 32 0 40 0
53 4 111 2 120 -4 5 -3 10 -1 10 5 0 6 5 8 11 4 11 -6 69 -7 142 -1 17 1 42
-1 54 -5 12 -4 25 -3 28 3 4 5 11 7 16 3 6 -3 34 -6 62 -5 123 3 147 2 157 -4
5 -3 10 -1 10 5 0 6 5 8 11 4 11 -6 69 -7 142 -1 17 1 42 -1 54 -5 12 -4 25
-3 28 3 4 5 11 7 16 3 6 -3 34 -6 62 -5 123 3 147 2 157 -4 5 -3 10 -1 10 5 0
6 5 8 11 4 6 -4 34 -6 63 -5 28 1 62 1 76 0 14 0 32 0 40 0 53 4 111 2 120 -4
5 -3 10 -1 10 5 0 6 5 8 11 4 11 -6 69 -7 142 -1 17 1 42 -1 54 -5 12 -4 25
-3 28 3 4 5 11 7 16 3 6 -3 34 -6 62 -5 123 3 147 2 157 -4 5 -3 10 -1 10 5 0
6 5 8 11 4 11 -6 69 -7 142 -1 17 1 42 -1 54 -5 12 -4 25 -3 28 3 4 5 11 7 16
3 6 -3 34 -6 62 -5 123 3 147 2 157 -4 5 -3 10 -1 10 5 0 6 5 8 11 4 6 -4 33
-6 60 -5 68 2 101 3 124 2 11 -1 28 -1 38 -1 9 0 23 0 30 -1 6 0 28 0 47 0 39
1 62 1 105 0 17 0 37 0 45 1 8 0 24 0 35 0 11 -1 26 -1 33 -1 16 1 39 1 55 0
6 0 28 0 47 0 38 1 60 1 105 0 17 0 48 0 70 1 22 0 61 1 87 1 26 0 52 -2 58
-6 5 -3 10 -1 10 5 0 6 5 8 11 4 11 -6 69 -7 142 -1 17 1 42 -1 54 -5 12 -4
25 -3 28 3 4 5 11 7 16 3 6 -3 34 -6 62 -5 123 3 147 2 157 -4 5 -3 10 -1 10
5 0 6 5 8 11 4 11 -6 69 -7 142 -1 17 1 42 -1 54 -5 12 -4 25 -3 28 3 4 5 11
7 16 3 6 -3 34 -6 62 -5 123 3 147 2 157 -4 5 -3 10 -1 10 5 0 6 5 8 11 4 11
-7 79 -7 129 -1 14 2 34 0 46 -4 11 -4 27 -3 34 1 8 5 21 5 29 1 9 -4 30 -5
46 -1 17 3 39 3 50 0 11 -4 29 -4 40 0 11 4 32 4 46 0 15 -4 32 -4 39 0 7 5
23 5 35 0 12 -5 28 -4 35 0 8 5 21 5 29 1 9 -4 30 -5 46 -1 17 3 39 3 50 0 11
-4 29 -4 40 0 11 4 31 4 45 0 14 -3 36 -4 50 0 14 4 35 3 47 -1 13 -5 25 -4
28 2 4 5 11 7 16 3 6 -3 34 -6 62 -5 123 3 147 2 157 -4 5 -3 10 -1 10 5 0 6
5 8 11 4 11 -6 69 -7 142 -1 17 1 42 -1 54 -5 12 -4 25 -3 28 2 3 5 16 6 28 1
12 -4 36 -4 52 -1 17 3 40 3 52 -1 13 -5 25 -4 28 2 4 5 11 7 16 3 6 -3 34 -6
62 -5 123 3 147 2 157 -4 5 -3 10 -1 10 5 0 6 5 8 11 4 11 -6 69 -7 142 -1 17
1 42 -1 54 -5 12 -4 25 -3 28 2 3 5 15 6 28 1 12 -5 31 -5 42 -1 11 4 29 4 41
0 11 -5 27 -4 34 0 8 5 21 5 29 1 9 -4 30 -5 46 -1 17 3 39 3 50 0 11 -4 29
-4 40 0 11 4 32 4 46 0 15 -4 32 -4 39 0 7 5 23 5 35 0 11 -4 28 -4 36 0 8 5
21 5 28 1 7 -5 27 -5 45 -1 17 4 40 4 51 0 11 -4 30 -4 41 1 12 4 24 5 27 3 3
-3 28 -5 56 -5 28 1 73 1 101 2 27 0 54 -2 60 -6 5 -3 10 -1 10 5 0 6 5 8 11
4 11 -6 69 -7 142 -1 17 1 42 -1 54 -5 12 -4 25 -3 28 3 4 5 11 7 16 3 6 -3
34 -6 62 -5 123 3 147 2 157 -4 5 -3 10 -1 10 5 0 6 5 8 11 4 11 -6 69 -7 142
-1 17 1 42 -1 54 -5 12 -4 25 -3 28 3 4 5 11 7 16 3 6 -3 34 -6 62 -5 123 3
147 2 157 -4 5 -3 10 -1 10 5 0 6 5 8 11 4 11 -7 79 -7 129 -1 14 2 34 0 46
-4 11 -4 27 -3 34 1 8 5 21 5 29 1 9 -4 30 -5 46 -1 17 3 39 3 50 0 11 -4 29
-4 40 0 11 4 32 4 46 0 15 -4 32 -4 39 0 7 5 23 5 35 0 12 -5 28 -4 35 0 8 5
21 5 29 1 9 -4 30 -5 46 -1 17 3 39 3 50 0 11 -4 29 -4 40 0 11 4 31 4 45 0
14 -3 36 -4 50 0 14 4 35 3 47 -1 13 -5 25 -4 28 2 4 5 11 7 16 3 6 -3 34 -6
62 -5 123 3 147 2 157 -4 5 -3 10 -1 10 5 0 6 5 8 11 4 11 -6 69 -7 142 -1 17
1 42 -1 54 -5 12 -4 25 -3 28 2 3 5 16 6 28 1 12 -4 36 -4 52 -1 17 3 40 3 52
-1 13 -5 25 -4 28 2 4 5 11 7 16 3 6 -3 34 -6 62 -5 123 3 147 2 157 -4 5 -3
10 -1 10 5 0 6 5 8 11 4 11 -6 69 -7 142 -1 17 1 42 -1 54 -5 12 -4 25 -3 28
2 3 5 15 6 28 1 12 -5 31 -5 42 -1 11 4 29 4 41 0 11 -5 27 -4 34 0 8 5 21 5
29 1 9 -4 30 -5 46 -1 17 3 39 3 50 0 11 -4 29 -4 40 0 11 4 32 4 46 0 15 -4
32 -4 39 0 7 5 23 5 35 0 11 -4 28 -4 36 0 8 5 21 5 28 1 7 -5 27 -5 45 -1 17
4 40 4 51 0 11 -4 30 -4 41 1 12 4 24 5 27 3 3 -3 28 -5 56 -5 28 1 73 1 101
2 27 0 54 -2 60 -6 5 -3 10 -1 10 5 0 6 5 8 11 4 11 -6 69 -7 142 -1 17 1 42
-1 54 -5 12 -4 25 -3 28 3 4 5 11 7 16 3 6 -3 34 -6 62 -5 123 3 147 2 157 -4
5 -3 10 -1 10 5 0 6 5 8 11 4 11 -6 69 -7 142 -1 17 1 42 -1 54 -5 12 -4 25
-3 28 3 4 5 11 7 16 3 6 -3 34 -6 62 -5 123 3 147 2 157 -4 5 -3 10 -1 10 5 0
6 5 8 11 4 6 -4 33 -6 60 -5 68 2 101 3 124 2 11 -1 28 -1 38 -1 9 0 23 0 30
-1 6 0 28 0 47 0 39 1 62 1 105 0 17 0 37 0 45 1 8 0 24 0 35 0 11 -1 26 -1
33 -1 16 1 39 1 55 0 6 0 28 0 47 0 38 1 60 1 105 0 17 0 48 0 70 1 22 0 61 1
87 1 26 0 52 -2 58 -6 5 -3 10 -1 10 5 0 6 5 8 11 4 11 -6 69 -7 142 -1 17 1
42 -1 54 -5 12 -4 25 -3 28 3 4 5 11 7 16 3 6 -3 34 -6 62 -5 123 3 147 2 157
-4 5 -3 10 -1 10 5 0 6 5 8 11 4 11 -6 69 -7 142 -1 17 1 42 -1 54 -5 12 -4
25 -3 28 3 4 5 11 7 16 3 6 -3 34 -6 62 -5 123 3 147 2 157 -4 5 -3 10 -1 10
5 0 6 5 8 11 4 6 -4 34 -6 63 -5 28 1 62 1 76 0 14 0 32 0 40 0 53 4 111 2
120 -4 5 -3 10 -1 10 5 0 6 5 8 11 4 11 -6 69 -7 142 -1 17 1 42 -1 54 -5 12
-4 25 -3 28 3 4 5 11 7 16 3 6 -3 34 -6 62 -5 123 3 147 2 157 -4 5 -3 10 -1
10 5 0 6 5 8 11 4 11 -6 69 -7 142 -1 17 1 42 -1 54 -5 12 -4 25 -3 28 3 4 5
11 7 16 3 6 -3 34 -6 62 -5 123 3 147 2 157 -4 5 -3 10 -1 10 5 0 6 5 8 11 4
6 -4 34 -6 63 -5 28 1 62 1 76 0 14 0 32 0 40 0 53 4 111 2 120 -4 5 -3 10 -1
10 5 0 6 5 8 12 3 7 -4 25 -6 39 -5 15 2 26 -2 27 -10 2 -27 4 -93 2 -100 -4
-22 -2 -107 4 -116 3 -6 2 -13 -3 -17 -6 -3 -7 -16 -3 -28 6 -20 7 -54 2 -82
-4 -26 -2 -104 4 -113 3 -6 2 -13 -3 -17 -6 -3 -7 -15 -2 -28 4 -12 5 -35 1
-52 -3 -16 -3 -42 1 -57 4 -16 5 -28 1 -28 -8 0 -6 -125 2 -146 3 -8 2 -14 -2
-14 -8 0 -7 -113 1 -135 4 -8 2 -17 -3 -20 -5 -3 -6 -16 -2 -28 6 -20 7 -54 2
-82 -4 -26 -2 -104 4 -113 3 -6 2 -13 -3 -17 -6 -3 -7 -16 -3 -28 6 -20 7 -54
2 -82 -4 -26 -2 -104 4 -113 3 -6 2 -13 -3 -17 -6 -3 -7 -15 -2 -28 4 -12 5
-35 1 -52 -3 -16 -3 -42 1 -57 4 -16 5 -28 1 -28 -8 0 -6 -125 2 -146 3 -8 2
-14 -3 -14 -4 0 -5 -23 -1 -50 4 -28 4 -52 2 -55 -7 -7 -5 -102 2 -113 3 -6 2
-13 -4 -17 -6 -4 -8 -11 -5 -16 9 -13 12 -90 4 -95 -4 -2 -3 -19 1 -38 4 -19
5 -37 2 -40 -7 -8 -6 -102 2 -114 3 -6 2 -13 -4 -17 -6 -4 -8 -11 -5 -16 9
-13 12 -90 4 -95 -4 -2 -3 -19 1 -38 4 -19 5 -37 2 -40 -7 -8 -6 -102 2 -114
3 -6 2 -13 -4 -17 -6 -4 -8 -11 -5 -16 9 -13 12 -90 4 -95 -4 -2 -3 -19 1 -38
4 -19 5 -37 2 -40 -7 -8 -6 -102 2 -114 3 -6 2 -13 -4 -17 -6 -4 -8 -11 -5
-16 9 -13 12 -90 4 -95 -4 -2 -3 -19 1 -38 4 -19 5 -37 2 -40 -7 -8 -6 -102 2
-114 3 -6 2 -13 -4 -17 -6 -4 -8 -11 -5 -16 9 -13 12 -90 4 -95 -4 -2 -3 -19
1 -38 4 -19 5 -37 2 -40 -7 -8 -6 -102 2 -114 3 -6 2 -13 -4 -17 -6 -4 -8 -11
-5 -16 9 -13 12 -90 4 -95 -4 -2 -3 -19 1 -38 4 -19 5 -37 2 -40 -7 -8 -6
-102 2 -114 3 -6 2 -13 -4 -17 -6 -4 -8 -11 -5 -16 9 -13 12 -90 4 -95 -4 -2
-3 -19 1 -38 4 -19 5 -37 2 -40 -7 -8 -6 -102 2 -114 3 -6 2 -13 -3 -17 -6 -3
-7 -16 -3 -28 6 -20 7 -55 2 -82 -4 -23 -1 -116 5 -125 3 -6 3 -10 -2 -10 -9
0 -8 -123 1 -146 3 -8 2 -14 -2 -14 -8 0 -7 -113 1 -135 4 -8 2 -17 -3 -20 -5
-3 -6 -16 -2 -28 6 -20 7 -54 2 -82 -4 -26 -2 -104 4 -113 3 -6 2 -13 -3 -17
-6 -3 -7 -16 -3 -28 6 -20 7 -54 2 -82 -4 -26 -2 -104 4 -113 3 -6 2 -13 -3
-17 -6 -3 -7 -15 -2 -28 4 -12 5 -35 1 -52 -3 -16 -3 -42 1 -57 4 -16 5 -28 1
-28 -8 0 -6 -125 2 -146 3 -8 2 -14 -2 -14 -8 0 -7 -113 1 -135 4 -8 2 -17 -3
-20 -5 -3 -6 -16 -2 -28 6 -20 7 -54 2 -82 -4 -26 -2 -104 4 -113 3 -6 2 -13
-3 -17 -6 -3 -7 -16 -3 -28 6 -20 7 -54 2 -82 -4 -26 -2 -104 4 -113 3 -6 2
-13 -3 -17 -6 -3 -7 -15 -2 -28 4 -12 5 -35 1 -52 -3 -16 -3 -42 1 -57 4 -16
5 -28 1 -28 -8 0 -6 -125 2 -146 3 -8 2 -14 -2 -14 -8 0 -7 -113 1 -135 4 -8
2 -17 -3 -20 -5 -3 -6 -16 -2 -28 6 -20 7 -54 2 -82 -4 -26 -2 -104 4 -113 3
-6 2 -13 -3 -17 -6 -3 -7 -16 -3 -28 6 -20 7 -54 2 -82 -4 -24 -2 -104 3 -112
3 -5 2 -15 -3 -23 -5 -8 -5 -21 0 -30 9 -17 -1 -42 -16 -39 -5 1 -13 0 -19 -1
-5 -1 -28 -1 -50 -1 -22 1 -46 1 -52 1 -27 0 -50 0 -95 1 -25 1 -51 -2 -57 -5
-5 -4 -12 -2 -15 3 -4 6 -18 6 -36 1 -17 -5 -30 -6 -30 -2 0 4 -18 7 -40 7
-22 0 -40 -3 -40 -7 0 -4 -13 -3 -29 2 -16 4 -32 5 -36 2 -7 -8 -102 -5 -115
3 -6 3 -10 2 -10 -4 0 -6 -11 -6 -30 -1 -17 5 -30 5 -30 0 0 -5 -13 -5 -30 0
-17 5 -30 5 -30 0 0 -5 -13 -5 -30 0 -17 5 -30 5 -30 0 0 -5 -13 -5 -30 0 -17
5 -30 5 -30 0 0 -5 -13 -5 -30 0 -17 5 -30 5 -30 0 0 -5 -13 -5 -30 0 -17 5
-30 5 -30 0 0 -5 -13 -5 -30 0 -17 5 -30 5 -30 0 0 -5 -13 -5 -30 0 -17 5 -30
5 -30 0 0 -5 -6 -7 -14 -4 -24 9 -79 10 -103 2 -12 -4 -25 -3 -28 2 -3 5 -18
5 -35 0 -17 -5 -30 -6 -30 -2 0 4 -18 7 -40 7 -22 0 -40 -3 -40 -7 0 -4 -13
-3 -29 2 -16 4 -32 6 -35 3 -7 -8 -105 -7 -113 1 -3 3 -13 1 -22 -4 -10 -5
-23 -5 -31 0 -8 5 -21 5 -30 0 -9 -5 -22 -5 -30 0 -7 4 -24 4 -36 0 -14 -6
-26 -5 -29 0 -3 6 -15 6 -29 0 -15 -5 -27 -5 -35 3 -13 13 -12 17 -14 -61 -1
-34 1 -62 5 -62 4 0 3 -11 -2 -25 -6 -15 -6 -25 0 -25 5 0 5 -12 0 -30 -5 -18
-5 -32 1 -35 5 -4 5 -14 -1 -25 -6 -11 -6 -21 -1 -24 5 -3 5 -21 1 -41 -4 -19
-4 -35 1 -35 5 0 4 -11 -1 -25 -6 -15 -6 -25 0 -25 5 0 5 -12 0 -30 -5 -18 -5
-32 1 -35 5 -4 5 -14 -1 -25 -6 -12 -7 -21 0 -25 5 -3 6 -15 0 -29 -4 -12 -5
-28 -1 -35 4 -6 5 -32 1 -56 -4 -25 -3 -45 1 -45 5 0 4 -11 -1 -25 -6 -15 -6
-26 0 -30 7 -4 7 -13 0 -24 -5 -10 -6 -21 -3 -25 3 -3 600 -6 1325 -6 l1318 0
0 4440 0 4440 -9480 0 -9480 0 0 -4440z"/>
<path d="M14646 11523 c-1 -2 -45 -5 -97 -8 -52 -2 -105 -7 -119 -9 -13 -3
-42 -8 -65 -12 -22 -3 -44 -7 -50 -8 -5 -2 -28 -6 -50 -11 -22 -4 -46 -12 -52
-18 -7 -5 -13 -7 -13 -4 0 17 -294 -103 -311 -126 -3 -5 -13 -9 -21 -10 -23
-4 -177 -106 -256 -170 -64 -52 -173 -157 -237 -229 -53 -60 -225 -322 -225
-343 0 -2 -13 -32 -30 -67 -33 -70 -81 -198 -75 -198 2 0 -3 -17 -12 -37 -8
-21 -17 -47 -18 -58 -2 -11 -8 -41 -14 -66 -32 -136 -45 -404 -26 -539 16
-121 22 -158 34 -197 5 -18 8 -33 6 -33 -2 0 3 -16 11 -35 8 -19 12 -35 10
-35 -3 0 2 -16 10 -35 8 -19 15 -38 15 -42 1 -5 6 -19 11 -33 5 -14 11 -32 13
-41 5 -26 105 -229 134 -274 15 -22 33 -52 40 -67 8 -16 18 -28 23 -28 4 0 8
-4 8 -10 0 -10 7 -19 65 -89 17 -20 35 -42 40 -49 25 -34 165 -172 175 -172 5
0 10 -3 10 -8 0 -9 117 -97 195 -147 137 -87 389 -194 494 -210 14 -2 38 -6
54 -9 100 -21 199 -29 342 -28 167 2 252 12 380 44 99 24 97 24 115 31 8 3 47
17 85 30 89 32 121 46 168 74 20 13 37 20 37 17 0 -4 7 -1 15 6 15 13 30 0
150 -131 l50 -54 120 2 c66 1 230 2 363 2 136 1 242 5 240 10 -1 5 -40 48 -85
97 -45 49 -90 98 -100 110 -10 12 -56 63 -103 114 -47 51 -93 102 -103 114
-10 12 -34 38 -53 58 -28 30 -32 39 -22 50 77 81 242 327 237 354 0 4 3 10 8
13 11 8 83 176 83 193 0 8 4 18 9 24 8 8 54 178 65 239 23 131 34 355 22 460
-2 17 -6 55 -10 85 -7 60 -9 70 -26 145 -6 28 -13 59 -16 70 -2 12 -13 48 -24
80 -12 33 -22 65 -23 71 -6 27 -82 201 -94 215 -7 8 -13 19 -13 23 0 4 -9 21
-21 37 -11 16 -18 29 -14 29 8 0 -56 94 -67 98 -4 2 -8 8 -8 14 0 10 -38 61
-113 151 -29 35 -158 167 -163 167 -3 0 -15 9 -27 21 -34 32 -184 139 -195
139 -6 0 -12 4 -14 8 -1 5 -15 15 -29 23 -132 70 -189 98 -189 93 0 -4 -6 -2
-12 4 -17 13 -190 74 -195 68 -3 -2 -19 2 -36 9 -18 7 -57 16 -87 20 -30 5
-66 10 -80 12 -14 2 -56 6 -95 8 -38 3 -87 6 -108 8 -21 1 -39 1 -41 0z m179
-716 c127 -31 205 -64 296 -124 181 -118 322 -316 380 -533 19 -68 20 -73 25
-100 15 -88 18 -130 18 -255 1 -127 -4 -183 -20 -255 -3 -14 -7 -36 -10 -50
-15 -78 -101 -280 -118 -280 -6 0 -28 20 -49 44 -21 25 -58 66 -83 92 -24 27
-51 58 -60 69 -15 19 -24 20 -380 19 -200 -1 -366 -3 -368 -5 -4 -4 20 -30
150 -171 24 -26 44 -51 44 -57 0 -6 4 -11 9 -11 11 0 19 -8 88 -87 29 -33 65
-73 80 -90 15 -17 46 -50 67 -74 22 -24 53 -59 69 -76 l30 -33 -35 -15 c-78
-32 -162 -45 -288 -45 -145 0 -243 16 -337 57 -21 9 -41 17 -44 17 -4 1 -41
23 -83 50 -142 90 -271 241 -337 396 -33 78 -57 146 -63 181 -3 13 -5 25 -5
27 -1 1 -1 3 -1 5 -1 1 -5 20 -10 42 -18 77 -33 313 -21 339 2 4 5 25 6 45 4
47 16 124 20 132 2 3 7 21 10 39 3 18 15 61 26 94 104 311 328 530 614 602 6
1 28 5 50 9 22 4 41 8 43 10 4 4 266 -3 287 -8z"/>
<path d="M7267 11514 c-1 -1 -38 -4 -82 -8 -44 -4 -96 -11 -115 -16 -19 -5
-51 -11 -70 -14 -19 -3 -66 -15 -105 -27 -38 -12 -87 -26 -107 -32 -21 -6 -38
-15 -38 -19 0 -4 -6 -8 -14 -8 -21 0 -236 -111 -236 -122 0 -5 -4 -7 -9 -4 -5
3 -14 -1 -21 -9 -7 -8 -18 -15 -25 -15 -8 0 -15 -3 -17 -8 -1 -4 -28 -25 -58
-47 -82 -59 -97 -72 -190 -165 -160 -161 -235 -266 -338 -475 -44 -89 -60
-126 -68 -155 -2 -8 -15 -48 -29 -89 -14 -41 -23 -76 -20 -79 2 -2 0 -13 -5
-23 -27 -50 -48 -246 -45 -424 1 -99 5 -189 8 -200 2 -11 8 -40 11 -65 3 -25
10 -60 16 -79 5 -19 7 -37 5 -42 -3 -4 -1 -10 5 -14 5 -3 10 -15 10 -26 0 -63
170 -453 221 -508 10 -11 19 -24 19 -28 0 -14 137 -183 204 -253 75 -77 185
-168 271 -224 33 -21 62 -42 63 -47 2 -5 7 -7 12 -4 5 3 16 -2 24 -11 9 -8 16
-13 16 -10 0 4 17 -4 38 -17 20 -13 57 -32 82 -44 108 -48 126 -55 143 -59 9
-2 25 -6 35 -9 210 -60 286 -70 522 -69 106 0 188 5 208 12 18 6 30 8 28 3 -3
-4 41 3 97 16 56 14 107 26 112 27 6 1 35 11 65 21 30 11 58 18 63 17 4 -1 7
3 7 8 0 6 6 10 14 10 19 0 220 100 224 111 2 5 8 9 14 9 14 0 174 111 228 159
146 127 286 290 346 401 10 19 22 37 25 40 7 6 53 92 68 130 6 14 15 32 20 40
6 8 23 51 40 95 48 128 45 120 66 208 18 73 37 182 43 247 10 119 5 380 -8
380 -3 0 -6 19 -7 43 -2 49 -42 217 -71 299 -11 31 -17 59 -14 62 3 3 -1 6 -8
6 -7 0 -10 3 -7 6 4 4 0 19 -8 33 -18 31 -55 119 -54 128 0 3 -3 9 -8 12 -5 3
-24 35 -43 71 -18 36 -39 70 -44 77 -27 31 -36 43 -36 48 0 6 -38 62 -55 80
-5 7 -23 29 -40 50 -39 51 -226 235 -238 235 -5 0 -17 8 -26 18 -39 44 -381
246 -381 226 0 -4 -6 -2 -12 4 -13 10 -126 51 -161 58 -10 2 -27 6 -37 9 -21
7 -50 13 -99 21 -18 3 -41 7 -50 9 -77 14 -362 29 -374 19z m223 -708 c42 -6
81 -13 105 -20 6 -2 24 -6 40 -11 29 -7 113 -46 165 -76 105 -60 219 -174 294
-293 32 -52 92 -182 101 -221 2 -5 8 -30 16 -55 7 -25 14 -52 15 -60 5 -30 18
-105 21 -125 1 -11 3 -74 4 -140 2 -126 -2 -168 -25 -280 -34 -158 -99 -309
-184 -424 -31 -43 -132 -145 -182 -183 -36 -29 -184 -107 -210 -112 -8 -1 -35
-9 -60 -16 -60 -17 -77 -19 -208 -23 -292 -9 -521 100 -698 333 -67 89 -145
243 -158 312 -3 13 -5 23 -7 23 -1 0 -3 9 -4 20 -1 11 -7 38 -13 60 -21 75
-25 120 -27 280 -1 104 3 175 12 203 6 23 10 49 7 57 -4 8 -1 15 6 15 7 0 10
6 7 14 -3 8 -3 17 1 20 3 4 7 17 9 29 5 33 52 155 82 212 33 64 100 160 143
206 44 48 160 139 175 139 7 0 13 4 13 9 0 24 200 95 305 107 28 4 51 7 52 8
5 4 160 -2 203 -8z"/>
<path d="M10907 11514 c-1 -1 -33 -5 -71 -8 -80 -7 -129 -14 -171 -26 -16 -5
-43 -11 -60 -13 -60 -9 -305 -102 -345 -131 -8 -6 -33 -20 -55 -31 -22 -11
-61 -34 -87 -52 -26 -18 -51 -33 -55 -33 -5 0 -26 -16 -47 -35 -22 -19 -43
-35 -48 -35 -4 0 -67 -58 -139 -130 -72 -71 -129 -130 -125 -130 5 0 -12 -23
-39 -54 -42 -46 -215 -346 -200 -346 3 0 -1 -11 -10 -24 -13 -20 -70 -180 -80
-226 -2 -8 -8 -35 -14 -60 -7 -25 -13 -58 -16 -73 -2 -15 -7 -47 -11 -70 -19
-125 -21 -414 -2 -432 4 -4 4 -13 1 -20 -7 -20 46 -274 67 -320 5 -11 17 -42
26 -70 27 -83 96 -229 150 -317 50 -81 119 -178 127 -178 4 0 7 -4 7 -9 0 -20
182 -205 267 -272 79 -61 149 -109 162 -109 6 0 11 -4 11 -8 0 -15 244 -131
340 -162 141 -45 245 -65 385 -74 22 -1 46 -5 53 -10 7 -4 12 -4 12 1 0 4 48
8 108 9 144 0 198 6 351 38 13 3 38 10 56 16 18 6 41 13 51 15 87 20 287 117
414 202 108 72 152 104 173 124 8 8 49 47 91 87 42 40 76 75 76 78 0 3 10 15
23 28 37 39 59 67 124 164 64 94 173 305 173 335 0 10 5 17 10 17 6 0 9 3 8 8
-1 4 9 39 21 77 13 39 24 77 26 85 1 8 7 33 13 55 71 253 56 637 -36 910 -9
28 -17 52 -17 55 0 3 -6 15 -13 28 -7 12 -10 22 -6 22 3 0 0 7 -7 17 -8 9 -13
19 -13 22 2 10 -15 51 -56 132 -52 103 -63 123 -75 131 -5 4 -6 8 -2 8 4 0 -4
12 -18 27 -14 15 -25 33 -25 40 0 7 -4 13 -10 13 -5 0 -10 7 -10 15 0 8 -4 15
-10 15 -5 0 -10 6 -10 13 0 7 -9 19 -20 27 -11 8 -20 18 -20 22 0 8 -12 22
-116 129 -39 41 -93 92 -120 114 -27 21 -51 42 -54 45 -15 16 -195 130 -205
130 -8 0 -15 3 -17 8 -10 22 -256 123 -360 148 -66 15 -154 31 -223 40 -47 6
-303 13 -308 8z m248 -709 c75 -14 89 -17 125 -30 21 -7 41 -11 44 -8 3 4 6 2
6 -4 0 -6 12 -14 26 -17 14 -4 43 -18 65 -31 21 -14 43 -25 49 -25 5 0 10 -4
10 -8 0 -4 14 -16 32 -26 31 -19 131 -115 175 -169 46 -56 115 -187 148 -282
32 -96 39 -123 50 -210 3 -22 8 -50 11 -63 6 -28 6 -238 0 -267 -2 -11 -7 -40
-10 -65 -15 -111 -61 -268 -97 -330 -5 -8 -15 -29 -23 -47 -38 -83 -193 -273
-224 -273 -7 0 -12 -4 -12 -9 0 -11 -92 -71 -161 -104 -135 -65 -367 -92 -519
-60 -36 7 -74 15 -85 17 -11 3 -21 5 -22 7 -2 1 -6 2 -10 4 -46 12 -187 84
-217 110 -13 11 -43 35 -66 54 -48 40 -133 143 -176 216 -34 56 -93 195 -100
233 -3 14 -9 33 -15 44 -5 10 -8 18 -5 18 2 0 0 16 -5 35 -12 43 -18 80 -25
170 -3 39 -7 79 -8 90 -1 11 2 26 7 33 6 8 5 12 -2 12 -7 0 -9 4 -6 10 3 5 8
39 10 75 2 36 9 91 16 123 7 31 13 64 14 72 2 21 24 89 41 127 8 17 14 34 14
38 0 10 71 149 79 155 3 3 18 23 33 45 34 51 110 131 168 175 25 19 51 40 58
47 7 7 18 13 24 13 5 0 22 8 36 19 28 19 151 66 200 76 15 3 56 8 92 12 36 3
66 6 68 8 4 4 154 -4 187 -10z"/>
<path d="M2654 11488 c-7 -11 -8 -3387 -1 -3394 10 -10 777 -9 778 1 1 6 2
253 3 550 l1 540 259 0 259 0 24 -40 c13 -22 26 -48 30 -57 3 -10 9 -18 14
-18 5 0 9 -5 9 -10 0 -6 23 -47 50 -91 28 -44 50 -82 50 -84 0 -2 22 -39 48
-82 26 -43 51 -85 55 -93 4 -8 18 -33 32 -55 14 -22 33 -55 42 -72 9 -18 20
-33 25 -33 4 0 8 -5 8 -10 0 -6 44 -84 97 -173 54 -89 98 -164 98 -167 1 -3
16 -29 34 -57 32 -52 34 -53 82 -53 27 -1 213 -1 414 -1 201 0 378 0 395 1
l29 0 -31 53 c-17 28 -36 62 -42 74 -6 13 -14 23 -18 23 -5 0 -8 6 -8 13 0 6
-18 40 -40 75 -22 34 -40 65 -40 67 0 4 -46 82 -78 130 -7 11 -15 28 -18 38
-4 9 -10 17 -15 17 -5 0 -9 4 -9 9 0 5 -26 52 -57 105 -32 53 -68 113 -80 134
-12 20 -29 52 -38 70 -8 17 -20 32 -25 32 -6 0 -10 8 -10 19 0 10 -7 24 -15
31 -8 7 -15 16 -15 20 0 4 -36 67 -80 140 -44 73 -80 135 -80 137 0 2 -11 20
-25 40 l-24 36 76 51 c189 125 340 327 420 561 13 38 26 81 28 95 3 14 7 36
10 50 12 53 19 139 19 230 -1 122 -7 220 -14 220 -3 0 -12 28 -19 63 -8 34
-17 67 -21 72 -4 6 -15 34 -24 63 -10 28 -22 52 -28 52 -6 0 -9 3 -5 6 8 9
-25 73 -91 173 -65 99 -198 237 -294 305 -123 86 -286 161 -398 181 -19 3 -46
8 -60 11 -44 10 -1680 11 -1686 2z m1579 -702 c26 -10 47 -23 47 -27 0 -5 7
-9 15 -9 21 0 105 -87 136 -140 54 -93 76 -241 55 -382 -20 -142 -112 -278
-223 -329 -47 -22 -56 -23 -428 -24 -209 -1 -384 0 -390 2 -6 2 -10 162 -9
456 1 248 2 457 3 463 1 7 113 10 374 9 336 -1 377 -3 420 -19z"/>
<path d="M5870 5862 c-109 -9 -201 -62 -287 -166 -20 -24 -53 -100 -59 -137
-20 -119 -7 -215 39 -304 52 -98 102 -137 254 -196 35 -13 220 -4 248 12 6 4
22 9 38 13 15 3 27 11 27 16 0 6 6 10 13 10 20 0 94 67 128 116 16 24 27 44
24 44 -3 0 2 11 11 25 9 14 13 25 9 25 -4 0 -3 6 2 13 10 14 16 60 16 132 1
251 -196 419 -463 397z m148 -116 c40 -9 108 -53 134 -88 51 -68 62 -99 62
-188 1 -93 -2 -108 -27 -160 -33 -67 -108 -129 -177 -145 -210 -49 -375 76
-382 289 -1 45 22 146 33 146 6 0 7 5 4 10 -3 6 -1 10 4 10 6 0 11 4 11 10 0
15 41 59 77 81 70 44 167 57 261 35z"/>
<path d="M9675 5854 c-142 -33 -237 -115 -282 -246 -39 -112 -32 -241 17 -343
33 -66 58 -97 112 -137 41 -31 133 -70 142 -61 3 4 6 2 6 -4 0 -12 194 -11
245 1 17 4 55 19 86 33 l56 27 1 58 c0 32 -4 58 -9 58 -5 0 -9 -4 -9 -8 0 -11
-83 -52 -129 -64 -91 -24 -214 -14 -281 22 -34 18 -100 81 -100 95 0 7 -5 15
-11 17 -5 2 -12 12 -14 23 -2 11 -4 20 -5 20 -14 0 -19 181 -6 210 5 11 10 22
11 25 22 65 80 124 151 156 71 31 272 24 296 -11 4 -5 8 -6 8 -2 0 5 20 -3 45
-17 l45 -27 0 55 0 55 -64 30 c-94 45 -208 58 -311 35z"/>
<path d="M12784 5859 c-3 -5 -9 -7 -14 -4 -24 15 -152 -49 -210 -105 -84 -83
-122 -186 -116 -315 5 -88 9 -106 43 -174 65 -128 202 -209 358 -209 253 -1
421 168 418 420 -1 54 -21 146 -34 154 -5 3 -9 12 -9 21 0 17 -51 85 -90 120
-35 32 -139 83 -181 89 -68 10 -159 11 -165 3z m199 -127 c57 -26 111 -79 138
-138 34 -74 33 -200 -3 -274 -34 -72 -69 -107 -137 -138 -92 -42 -233 -33
-299 20 -70 55 -104 107 -118 178 -33 173 48 320 206 371 40 13 166 2 213 -19z"/>
<path d="M15260 5859 c-58 -8 -109 -28 -134 -51 -11 -10 -23 -18 -27 -18 -15
0 -49 -92 -49 -135 0 -91 51 -159 158 -211 31 -15 59 -28 62 -29 108 -33 182
-97 176 -153 -2 -15 -4 -32 -5 -39 -2 -24 -55 -62 -95 -69 -89 -15 -155 -7
-283 32 -22 6 -23 4 -23 -45 0 -48 5 -56 33 -52 4 0 7 -4 7 -11 0 -6 3 -9 6
-5 3 3 18 1 33 -5 47 -18 231 -20 292 -2 30 9 56 20 59 24 3 4 15 12 27 19 60
31 88 169 50 246 -33 66 -47 76 -250 169 -43 20 -84 42 -91 49 -38 38 -47 101
-20 142 30 46 159 66 249 40 25 -8 45 -11 45 -8 0 4 5 2 12 -5 25 -25 38 -13
38 33 0 39 -3 46 -30 60 -16 8 -31 15 -32 14 -2 0 -19 2 -38 5 -58 10 -122 12
-170 5z"/>
<path d="M3259 5842 c-5 -22 -4 -772 1 -773 28 -5 92 -4 100 1 7 4 10 56 8
148 -2 78 -1 143 2 143 3 1 57 2 120 4 63 1 130 5 149 9 122 25 190 108 185
231 -3 96 -19 135 -73 182 -58 50 -103 60 -303 61 -104 1 -189 -2 -189 -6z
m333 -96 c80 -10 123 -61 120 -141 -5 -99 -54 -142 -165 -142 -26 0 -50 -2
-53 -5 -2 -3 -22 -2 -44 2 -21 4 -43 3 -47 -1 -5 -5 -14 -5 -21 0 -16 10 -20
280 -4 290 13 8 141 6 214 -3z"/>
<path d="M4384 5460 c0 -215 2 -391 5 -391 3 -1 29 -2 57 -3 l51 -1 -1 110
c-1 60 3 116 8 123 5 7 5 12 -1 12 -12 0 -11 45 1 57 4 4 43 8 86 8 69 1 80
-1 89 -20 6 -11 38 -69 71 -130 34 -60 66 -122 72 -136 10 -24 16 -26 65 -24
29 1 56 4 58 7 3 3 -12 36 -33 74 -21 38 -60 108 -85 155 -46 85 -46 87 -24
93 12 3 25 5 30 5 4 0 20 12 35 26 15 14 30 25 34 25 4 0 10 9 13 20 3 11 13
26 21 34 19 20 24 128 8 189 -19 72 -73 124 -150 143 -16 4 -115 9 -220 11
l-190 3 0 -390z m291 289 c39 -1 84 -9 102 -17 51 -24 72 -83 60 -165 -4 -21
-67 -88 -78 -81 -4 2 -10 1 -13 -4 -2 -4 -59 -9 -125 -10 -110 -3 -121 -1
-122 15 -4 73 -3 246 1 253 6 10 46 16 80 13 14 -1 57 -3 95 -4z"/>
<path d="M6913 5462 c0 -213 3 -389 8 -392 9 -6 283 -3 324 4 66 11 90 18 140
42 61 30 133 96 141 130 3 13 10 24 14 24 11 0 33 113 35 183 2 74 -14 146
-43 204 -26 50 -93 117 -133 134 -16 6 -29 15 -29 19 0 3 -6 7 -12 8 -7 0 -35
7 -63 15 -33 9 -107 14 -216 15 l-166 2 0 -388z m362 275 c33 -9 75 -33 103
-60 36 -34 54 -57 46 -57 -3 0 -1 -6 5 -14 18 -22 24 -55 25 -141 1 -118 -14
-165 -72 -223 -53 -53 -114 -73 -247 -79 l-110 -5 1 293 c1 259 3 293 17 298
18 7 201 -3 232 -12z"/>
<path d="M8149 5842 c-3 -29 1 -541 5 -557 8 -38 40 -110 58 -129 10 -11 18
-23 18 -27 0 -4 30 -23 67 -41 62 -30 75 -33 163 -33 52 0 109 4 126 8 81 18
153 83 185 165 20 53 22 75 23 337 l1 280 -39 3 c-59 5 -88 -5 -78 -26 5 -9 7
-26 6 -37 -5 -37 -7 -159 -3 -225 0 -14 1 -37 0 -52 0 -16 -1 -36 -1 -45 -1
-97 -1 -122 -5 -148 -9 -72 -60 -137 -118 -150 -43 -10 -130 -14 -142 -7 -5 4
-14 7 -20 7 -22 2 -61 24 -82 47 -46 49 -50 76 -49 364 l1 272 -57 1 c-32 0
-58 -3 -59 -7z"/>
<path d="M10591 5800 l2 -49 81 0 c45 0 99 0 121 0 l40 -1 0 -340 c0 -187 2
-340 5 -341 42 -6 103 -3 106 6 3 6 6 161 7 344 l2 334 118 -1 c125 -1 119 -4
119 53 0 14 0 29 -1 34 -1 6 -120 10 -301 10 l-300 0 1 -49z"/>
<path d="M11750 5848 c-1 -5 -2 -730 -1 -759 1 -24 4 -25 52 -24 28 1 53 6 57
12 5 8 8 730 3 766 -1 6 -110 11 -111 5z"/>
<path d="M13842 5797 c1 -29 -1 -58 -5 -64 -4 -7 -3 -14 2 -17 6 -4 6 -18 1
-35 -4 -15 -4 -34 0 -41 5 -7 4 -24 -1 -37 -5 -12 -5 -23 -1 -23 4 0 6 -17 5
-37 -3 -33 -3 -89 -2 -135 0 -7 0 -42 0 -78 -1 -36 0 -110 1 -164 l3 -100 40
1 c22 0 47 1 55 2 13 1 15 39 15 291 0 216 3 286 11 277 22 -23 204 -297 204
-306 0 -5 4 -11 8 -13 5 -1 46 -58 91 -125 45 -68 87 -123 94 -124 61 -4 97
-4 98 0 4 17 4 758 1 769 -5 15 -98 17 -108 1 -3 -6 -6 -137 -6 -292 1 -280 1
-282 -18 -257 -11 14 -63 90 -117 170 -53 80 -100 147 -105 148 -4 2 -8 9 -8
16 0 7 -8 21 -17 32 -29 32 -113 160 -113 171 0 16 -25 23 -80 23 l-49 0 1
-53z"/>
</g>
</svg>
